<svg data-name="Layer 1" xmlns="http://www.w3.org/2000/svg" viewBox="0 0 185.635 42.557"><defs><linearGradient id="a" x1="32.246" y1="32.81" x2="43.756" y2="30.987" gradientUnits="userSpaceOnUse"><stop offset="0" stop-color="#f7e61c"/><stop offset="1" stop-color="#d78d1d"/></linearGradient><linearGradient id="b" x1="32.352" y1="18.212" x2="52.825" y2="18.212" gradientUnits="userSpaceOnUse"><stop offset=".003" stop-color="#6ca6dc"/><stop offset="1" stop-color="#f1f6f9"/></linearGradient><linearGradient id="c" x1="50.256" y1="23.334" x2="61.732" y2="23.334" gradientUnits="userSpaceOnUse"><stop offset="0" stop-color="#6ca6dc"/><stop offset="1" stop-color="#312d75"/></linearGradient><linearGradient id="d" x1="40.498" y1="36.759" x2="60.972" y2="36.759" gradientUnits="userSpaceOnUse"><stop offset="0" stop-color="#e0d920"/><stop offset="1" stop-color="#a4bc36"/></linearGradient></defs><path d="M31.72 25.539a15.432 15.432 0 0 0-.128 1.945 15.077 15.077 0 0 0 11.159 14.557c-1.283-.94-3.45-2.917-3.332-5.5.167-3.667 1.581-4.416 2.581-5.915a5.779 5.779 0 0 0-2.249-8.6 5.711 5.711 0 0 0-2.812-.8c-2.515 0-4.478 1.979-5.22 4.308" fill="url(#a)"/><path d="M46.663 12.416a15.074 15.074 0 0 0-14.311 10.343c1.082-1.237 2.891-2.782 5.115-2.627 3.656.255 4.371 1.686 5.843 2.72a5.779 5.779 0 0 0 8.651-2.04c2.439-4.1-.695-7.651-4.209-8.355-.349-.024-.7-.042-1.054-.042h-.034" fill="url(#b)"/><path d="M53.9 18.434c-.165 3.662-1.58 4.41-2.578 5.909a5.778 5.778 0 0 0 2.248 8.6c3.8 2.141 7.03-.366 8.03-3.512a15.04 15.04 0 0 0-11.028-16.5c1.282.938 3.448 2.917 3.328 5.5" fill="url(#c)"/><path d="M41.364 34.157c-2.441 4.1.695 7.65 4.209 8.354.36.027.722.046 1.09.046a15.074 15.074 0 0 0 14.309-10.346c-1.081 1.236-2.891 2.781-5.113 2.625-3.657-.255-4.373-1.688-5.844-2.72a6.753 6.753 0 0 0-3.666-1.155c-1.663 0-3.524.741-4.985 3.195" fill="url(#d)"/><path d="M27.542 16.15l-.927.123c-2.188.314-2.75 1.936-4.555 5.425-.876 1.684-4.739 10.721-5.735 13.278-.626 1.557-1.248 2.992-2.059 5.113a.729.729 0 0 1-.622.247 1.153 1.153 0 0 1-.809-.247c-.5-1.748-1.434-4.18-2.373-6.485L5.228 20.949c-.934-2.306-1.5-4.3-3.74-4.614L.24 16.15c-.374-.5-.313-1.371.189-1.56 1.558.125 3.737.189 5.859.189 1.681 0 2.93-.063 5.048-.189a1.1 1.1 0 0 1 .063 1.56l-.749.123c-1.931.314-2 .625-1.373 2.5 1.437 4.3 3.242 8.661 4.676 11.906a10.134 10.134 0 0 0 1 2 7.614 7.614 0 0 0 1.183-2.37c.812-2.119 2.93-7.54 3.556-9.162a14.09 14.09 0 0 0 1.118-3.865c0-.563-.374-.809-1.118-.938l-1.437-.185a1.14 1.14 0 0 1 .128-1.56q2.9.188 4.671.189c1.561 0 2.621-.063 4.367-.186a1.144 1.144 0 0 1 .121 1.548zm64.151 1.243h7.042a1.987 1.987 0 0 0-.059-2.615h-6.923c-1.06 0-1.12-.062-1.12-1.185v-2.805c-.25-.436-1-.436-1.309-.31a15.523 15.523 0 0 1-2.624 3.677 12.269 12.269 0 0 1-3.988 1.931 1.032 1.032 0 0 0 .189 1.307h1.745c1.249 0 1.309.13 1.309 1.812v14.272c0 3.742 1.124 6.737 6.485 6.737a8.631 8.631 0 0 0 6.546-2.871c.12-.372-.127-1.06-.627-1.06-.184 0-1 .688-1.558.873a4.725 4.725 0 0 1-1.684.312c-4.114 0-4.551-3.3-4.551-6.918V18.893c.002-1.31.067-1.5 1.126-1.5zm48.062 20.387c-2.242-.312-2.368-.936-2.368-5.422V8.106c0-2.744.125-5.861.189-7.731A.7.7 0 0 0 136.95 0a43.785 43.785 0 0 1-6.731 2.62.939.939 0 0 0 0 1.247l.623.375c1.87 1.12 1.931 1.5 1.931 5.173v22.942c0 4.486-.061 5.111-2.368 5.422l-1.434.189a1.093 1.093 0 0 0 .124 1.561 85.356 85.356 0 0 1 5.985-.19c2.179 0 3.989.062 6.047.19a1.1 1.1 0 0 0 .124-1.561zm16.02 0c-2.238-.31-2.368-.935-2.368-5.421V21.138c0-2.558.129-5.552.25-7.732-.061-.248-.31-.374-.622-.374a42.635 42.635 0 0 1-6.422 3.053.846.846 0 0 0-.059 1.122l.558.375c1.684 1.122 1.684 1.435 1.684 3.865v10.911c0 4.486-.063 5.11-2.368 5.421l-1.313.19a1.093 1.093 0 0 0 .125 1.561c1.75-.127 3.616-.19 5.859-.19 2.183 0 3.988.063 5.859.19a1.1 1.1 0 0 0 .128-1.561zm-5.112-30.856a3.052 3.052 0 0 0 3.305-3.241A3.111 3.111 0 0 0 150.85.441a3.243 3.243 0 0 0-3.366 3.37 3.063 3.063 0 0 0 3.179 3.113zM77.542 37.78c-2.244-.312-2.372-.936-2.372-5.422V8.106c0-2.744.128-5.861.189-7.731A.691.691 0 0 0 74.738 0 43.874 43.874 0 0 1 68 2.62a.945.945 0 0 0 0 1.247l.622.375c1.874 1.12 1.936 1.5 1.936 5.173v22.942c0 4.486-.062 5.111-2.369 5.422l-1.433.189a1.092 1.092 0 0 0 .124 1.561 85.193 85.193 0 0 1 5.985-.19c2.179 0 3.989.062 6.047.19a1.1 1.1 0 0 0 .124-1.561zM185.2 36.657c-.186 0-.5.25-.807.44a3.661 3.661 0 0 1-1.561.371c-2.432 0-2.99-2.555-2.866-5.423l.372-10.847c.186-4.675-1.994-7.292-6.484-7.292-4.551 0-11.594 4.425-11.594 7.668a.786.786 0 0 0 .872.87 6.711 6.711 0 0 0 3.555-1.182c.5-.375.563-1.124.622-2.122.124-1.932 2.244-2.8 3.992-2.8 3.861 0 4.611 3.118 4.548 5.424l-.061 2.87c0 .935-.124 1.5-1.059 1.807l-7.42 2.682c-3.989 1.433-5.172 2.868-5.172 5.3a5.856 5.856 0 0 0 1.931 4.363 6.46 6.46 0 0 0 4.366 1.435 9.221 9.221 0 0 0 4.486-1.56 9.63 9.63 0 0 1 2.432-1.247c.374 0 .75.5 1 .872a4.987 4.987 0 0 0 4.053 1.935 6.546 6.546 0 0 0 5.237-2.747c-.007-.442-.196-.817-.442-.817zm-9.724-3.74c-.059 1.311-.059 2.183-.809 2.93a7.029 7.029 0 0 1-3.8 1.561 3.759 3.759 0 0 1-3.929-3.742c0-2.43 1.805-3.367 5.484-4.613a11.652 11.652 0 0 1 2.558-.623c.372 0 .622.124.622.811zm-49.376 3.74c-.185 0-.5.251-.811.44a3.63 3.63 0 0 1-1.561.371c-2.428 0-2.99-2.555-2.866-5.423l.378-10.847c.185-4.675-2-7.292-6.485-7.292-4.551 0-11.6 4.425-11.6 7.668a.788.788 0 0 0 .874.87 6.705 6.705 0 0 0 3.552-1.182c.5-.375.561-1.124.626-2.122.123-1.932 2.242-2.8 3.988-2.8 3.865 0 4.611 3.118 4.552 5.424l-.066 2.87c0 .935-.121 1.5-1.058 1.807l-7.416 2.682c-3.992 1.433-5.178 2.868-5.178 5.3a5.846 5.846 0 0 0 1.935 4.366 6.462 6.462 0 0 0 4.363 1.435 9.259 9.259 0 0 0 4.49-1.56 9.543 9.543 0 0 1 2.428-1.247c.376 0 .75.5 1 .872a4.982 4.982 0 0 0 4.053 1.935 6.546 6.546 0 0 0 5.237-2.747c.005-.445-.184-.82-.435-.82zm-9.724-3.74c-.063 1.311-.063 2.183-.811 2.93a7.034 7.034 0 0 1-3.8 1.561 3.761 3.761 0 0 1-3.929-3.742c0-2.43 1.811-3.367 5.49-4.613a11.545 11.545 0 0 1 2.557-.623c.37 0 .622.124.622.811z" fill="#fff"/></svg>